<svg id="android12-hero" xmlns="http://www.w3.org/2000/svg" width="36.637" height="36.637" viewBox="0 0 36.637 36.637">
  <path id="Path_15" data-name="Path 15" d="M18.318,36.637A18.318,18.318,0,1,0,0,18.318,18.318,18.318,0,0,0,18.318,36.637Z" fill="#3ddc84"/>
  <path id="Path_16" data-name="Path 16" d="M49.766,52.292a2.862,2.862,0,0,1,2.845,2.862V69.38" transform="translate(-40.463 -42.518)" fill="none" stroke="#fff" stroke-linecap="round" stroke-width="2"/>
  <path id="Path_17" data-name="Path 17" d="M96.695,69.309H85.306V66.461a5.7,5.7,0,0,1,5.7-5.7h2.862A2.845,2.845,0,0,0,96.709,57.9a5.7,5.7,0,0,0-11.074-1.878,5.945,5.945,0,0,0-.246.942" transform="translate(-69.36 -42.447)" fill="none" stroke="#fff" stroke-linecap="round" stroke-width="2"/>
</svg>
