<svg xmlns="http://www.w3.org/2000/svg" xmlns:xlink="http://www.w3.org/1999/xlink" width="175.175" height="56.352" viewBox="0 0 175.175 56.352">
  <defs>
    <linearGradient id="linear-gradient" x1="3.846" y1="2.574" x2="-7.747" y2="14.166" gradientUnits="objectBoundingBox">
      <stop offset="0" stop-color="#47f3d0"/>
      <stop offset="0.516" stop-color="#278ef1"/>
      <stop offset="1" stop-color="#cb5edc"/>
    </linearGradient>
    <linearGradient id="linear-gradient-2" x1="9.122" y1="2.574" x2="-2.471" y2="14.166" xlink:href="#linear-gradient"/>
    <linearGradient id="linear-gradient-3" x1="3.846" y1="-13.551" x2="-7.747" y2="-1.958" xlink:href="#linear-gradient"/>
    <linearGradient id="linear-gradient-4" x1="9.122" y1="-13.551" x2="-2.471" y2="-1.958" xlink:href="#linear-gradient"/>
    <linearGradient id="linear-gradient-5" x1="-1.578" y1="-8.127" x2="-13.171" y2="3.466" xlink:href="#linear-gradient"/>
    <linearGradient id="linear-gradient-6" x1="-1.578" y1="-2.85" x2="-13.171" y2="8.742" xlink:href="#linear-gradient"/>
    <linearGradient id="linear-gradient-7" x1="14.546" y1="-8.127" x2="2.953" y2="3.466" xlink:href="#linear-gradient"/>
    <linearGradient id="linear-gradient-8" x1="14.546" y1="-2.85" x2="2.953" y2="8.742" xlink:href="#linear-gradient"/>
    <linearGradient id="linear-gradient-9" x1="0.99" y1="0.012" x2="0.042" y2="0.956" xlink:href="#linear-gradient"/>
    <linearGradient id="linear-gradient-10" x1="0.653" y1="-2.494" x2="-5.143" y2="3.302" xlink:href="#linear-gradient"/>
    <linearGradient id="linear-gradient-11" x1="6.331" y1="-2.494" x2="0.534" y2="3.302" xlink:href="#linear-gradient"/>
    <linearGradient id="linear-gradient-12" x1="3.492" y1="-5.333" x2="-2.304" y2="0.463" xlink:href="#linear-gradient"/>
    <linearGradient id="linear-gradient-13" x1="3.492" y1="0.344" x2="-2.304" y2="6.141" xlink:href="#linear-gradient"/>
  </defs>
  <g id="Group_374" data-name="Group 374" transform="translate(-140.825 -16.825)">
    <text id="GameOn" transform="translate(208 52)" fill="#232323" font-size="24" font-family="Helvetica"><tspan x="0" y="0">G</tspan><tspan y="0" font-family="Epura-Medium" font-weight="500">ame</tspan><tspan y="0">O</tspan><tspan y="0" font-family="Epura-Medium" font-weight="500">n</tspan></text>
    <g id="Group_57" data-name="Group 57" transform="translate(-28.256 -152.256)">
      <g id="Group_56" data-name="Group 56" transform="translate(169.081 169.081)">
        <g id="Group_51" data-name="Group 51" transform="translate(17.849 0)">
          <rect id="Rectangle_61" data-name="Rectangle 61" width="3.291" height="3.291" rx="1.645" transform="translate(17.363)" fill="url(#linear-gradient)"/>
          <rect id="Rectangle_62" data-name="Rectangle 62" width="3.291" height="3.291" rx="1.645" fill="url(#linear-gradient-2)"/>
        </g>
        <g id="Group_52" data-name="Group 52" transform="translate(17.849 53.061)">
          <rect id="Rectangle_63" data-name="Rectangle 63" width="3.291" height="3.291" rx="1.645" transform="translate(17.363)" fill="url(#linear-gradient-3)"/>
          <rect id="Rectangle_64" data-name="Rectangle 64" width="3.291" height="3.291" rx="1.645" fill="url(#linear-gradient-4)"/>
        </g>
        <g id="Group_53" data-name="Group 53" transform="translate(53.061 17.849)">
          <rect id="Rectangle_65" data-name="Rectangle 65" width="3.291" height="3.291" rx="1.645" transform="translate(0 17.363)" fill="url(#linear-gradient-5)"/>
          <rect id="Rectangle_66" data-name="Rectangle 66" width="3.291" height="3.291" rx="1.645" fill="url(#linear-gradient-6)"/>
        </g>
        <g id="Group_54" data-name="Group 54" transform="translate(0 17.849)">
          <rect id="Rectangle_67" data-name="Rectangle 67" width="3.291" height="3.291" rx="1.645" transform="translate(0 17.363)" fill="url(#linear-gradient-7)"/>
          <rect id="Rectangle_68" data-name="Rectangle 68" width="3.291" height="3.291" rx="1.645" fill="url(#linear-gradient-8)"/>
        </g>
        <g id="Group_55" data-name="Group 55" transform="translate(6.202 6.202)">
          <path id="Path_78" data-name="Path 78" d="M268.018,258.914h-4.127a1.553,1.553,0,0,1-1.553-1.553v-5.416a1.553,1.553,0,0,1,1.553-1.553h4.127a1.553,1.553,0,0,0,1.553-1.553v-6.25a1.553,1.553,0,0,1,1.553-1.553h2.52a1.553,1.553,0,0,0,1.553-1.553v-3.475a1.553,1.553,0,0,0-1.553-1.553H270.17a1.553,1.553,0,0,0-1.553,1.553v2.671a1.553,1.553,0,0,1-1.553,1.553h-6.1a1.553,1.553,0,0,0-1.553,1.553v4.066a1.553,1.553,0,0,1-1.553,1.553h-5.537a1.553,1.553,0,0,1-1.553-1.553v-4.066a1.553,1.553,0,0,0-1.553-1.553h-6.129a1.553,1.553,0,0,1-1.553-1.553v-2.671a1.553,1.553,0,0,0-1.553-1.553H236.5a1.553,1.553,0,0,0-1.553,1.553v3.475a1.553,1.553,0,0,0,1.553,1.553h2.55a1.553,1.553,0,0,1,1.553,1.553v6.25a1.553,1.553,0,0,0,1.553,1.553h4.127a1.553,1.553,0,0,1,1.553,1.553v5.416a1.553,1.553,0,0,1-1.553,1.553h-4.127a1.553,1.553,0,0,0-1.553,1.553v6.25a1.553,1.553,0,0,1-1.553,1.553H236.5a1.553,1.553,0,0,0-1.553,1.553V273.3a1.553,1.553,0,0,0,1.553,1.553h3.475a1.553,1.553,0,0,0,1.553-1.553v-2.671a1.553,1.553,0,0,1,1.553-1.553h6.129a1.553,1.553,0,0,0,1.553-1.553v-4.066a1.553,1.553,0,0,1,1.553-1.553h5.537a1.553,1.553,0,0,1,1.553,1.553v4.066a1.553,1.553,0,0,0,1.553,1.553h6.1a1.553,1.553,0,0,1,1.553,1.553V273.3a1.553,1.553,0,0,0,1.553,1.553h3.475A1.553,1.553,0,0,0,275.2,273.3v-3.475a1.553,1.553,0,0,0-1.553-1.553h-2.52a1.553,1.553,0,0,1-1.553-1.553v-6.25A1.553,1.553,0,0,0,268.018,258.914Z" transform="translate(-233.116 -232.68)" fill="url(#linear-gradient-9)"/>
          <rect id="Rectangle_69" data-name="Rectangle 69" width="6.581" height="6.581" rx="3.291" transform="translate(37.366 18.683)" fill="url(#linear-gradient-10)"/>
          <rect id="Rectangle_70" data-name="Rectangle 70" width="6.581" height="6.581" rx="3.291" transform="translate(0 18.683)" fill="url(#linear-gradient-11)"/>
          <rect id="Rectangle_71" data-name="Rectangle 71" width="6.581" height="6.581" rx="3.291" transform="translate(18.683 37.366)" fill="url(#linear-gradient-12)"/>
          <rect id="Rectangle_72" data-name="Rectangle 72" width="6.581" height="6.581" rx="3.291" transform="translate(18.683)" fill="url(#linear-gradient-13)"/>
        </g>
      </g>
    </g>
  </g>
</svg>
