<svg xmlns="http://www.w3.org/2000/svg" width="29.28" height="35.136" viewBox="0 0 29.28 35.136">
  <path id="Icon_material-android" data-name="Icon material-android" d="M8.856,26.352a1.468,1.468,0,0,0,1.464,1.464h1.464V32.94a2.2,2.2,0,1,0,4.392,0V27.816H19.1V32.94a2.2,2.2,0,1,0,4.392,0V27.816H24.96a1.468,1.468,0,0,0,1.464-1.464V11.712H8.856ZM5.2,11.712a2.193,2.193,0,0,0-2.2,2.2V24.156a2.2,2.2,0,1,0,4.392,0V13.908A2.193,2.193,0,0,0,5.2,11.712Zm24.888,0a2.193,2.193,0,0,0-2.2,2.2V24.156a2.2,2.2,0,1,0,4.392,0V13.908A2.193,2.193,0,0,0,30.084,11.712Zm-7.276-8.55,1.9-1.9a.725.725,0,0,0,0-1.039.725.725,0,0,0-1.039,0L21.5,2.386a8.549,8.549,0,0,0-3.865-.922,8.672,8.672,0,0,0-3.894.922L11.564.22a.725.725,0,0,0-1.039,0,.725.725,0,0,0,0,1.039l1.918,1.918a8.76,8.76,0,0,0-3.587,7.071H26.424A8.733,8.733,0,0,0,22.808,3.162Zm-8.1,4.158H13.248V5.856h1.464Zm7.32,0H20.568V5.856h1.464Z" transform="translate(-3)" fill="#5dbb80"/>
</svg>
